<?xml version="1.0" encoding="UTF-8"?>
<svg xmlns="http://www.w3.org/2000/svg" xmlns:xlink="http://www.w3.org/1999/xlink" width="0" height="0">
  
  <symbol id="icon-facebook" width="20" height="20" viewBox="0 0 20 20">
    <g clip-path="url(#clip0)">
      <path d="M13.3308 3.32083H15.1566V0.140833C14.8416 0.0975 13.7583 0 12.4966 0C9.8641 0 8.06076 1.65583 8.06076 4.69917V7.5H5.15576V11.055H8.06076V20H11.6224V11.0558H14.4099L14.8524 7.50083H11.6216V5.05167C11.6224 4.02417 11.8991 3.32083 13.3308 3.32083Z" />
    </g>
    <defs>
      <clipPath>
        <rect width="20" height="20" />
      </clipPath>
    </defs>
  </symbol>
  <symbol id="icon-instagram" width="20" height="20" viewBox="0 0 20 20">
    <g clip-path="url(#clip0)">
      <path d="M19.9804 5.88005C19.9336 4.81738 19.7617 4.0868 19.5156 3.45374C19.2616 2.78176 18.8709 2.18014 18.359 1.68002C17.8589 1.1721 17.2533 0.777435 16.5891 0.527447C15.9524 0.281274 15.2256 0.109427 14.163 0.0625732C13.0924 0.0117516 12.7525 0 10.0371 0C7.32173 0 6.98185 0.0117516 5.91521 0.0586052C4.85253 0.105459 4.12195 0.277459 3.48904 0.523479C2.81692 0.777435 2.2153 1.16814 1.71517 1.68002C1.20726 2.18014 0.812743 2.78573 0.562603 3.44992C0.31643 4.0868 0.144583 4.81341 0.0977294 5.87609C0.0469078 6.9467 0.0351562 7.28658 0.0351562 10.002C0.0351562 12.7173 0.0469078 13.0572 0.0937614 14.1239C0.140615 15.1865 0.312615 15.9171 0.558787 16.5502C0.812743 17.2221 1.20726 17.8238 1.71517 18.3239C2.2153 18.8318 2.82088 19.2265 3.48508 19.4765C4.12195 19.7226 4.84856 19.8945 5.91139 19.9413C6.97788 19.9883 7.31791 19.9999 10.0333 19.9999C12.7487 19.9999 13.0885 19.9883 14.1552 19.9413C15.2179 19.8945 15.9484 19.7226 16.5813 19.4765C17.9254 18.9568 18.9881 17.8941 19.5078 16.5502C19.7538 15.9133 19.9258 15.1865 19.9727 14.1239C20.0195 13.0572 20.0313 12.7173 20.0313 10.002C20.0313 7.28658 20.0273 6.9467 19.9804 5.88005ZM18.1794 14.0457C18.1364 15.0225 17.9723 15.5499 17.8356 15.9015C17.4995 16.7728 16.808 17.4643 15.9367 17.8004C15.5851 17.9372 15.0538 18.1012 14.0809 18.1441C13.026 18.1911 12.7096 18.2027 10.0411 18.2027C7.37255 18.2027 7.05221 18.1911 6.00113 18.1441C5.02438 18.1012 4.49693 17.9372 4.1453 17.8004C3.71171 17.6402 3.31704 17.3862 2.9967 17.0541C2.6646 16.7298 2.41065 16.3391 2.2504 15.9055C2.11365 15.5539 1.94959 15.0225 1.90671 14.0497C1.8597 12.9948 1.8481 12.6783 1.8481 10.0097C1.8481 7.34122 1.8597 7.02087 1.90671 5.96995C1.94959 4.99319 2.11365 4.46575 2.2504 4.11412C2.41065 3.68038 2.6646 3.28586 3.00067 2.96536C3.32483 2.63327 3.71553 2.37931 4.14927 2.21921C4.5009 2.08247 5.03231 1.9184 6.0051 1.87537C7.05999 1.82851 7.37652 1.81676 10.0449 1.81676C12.7174 1.81676 13.0337 1.82851 14.0848 1.87537C15.0616 1.9184 15.589 2.08247 15.9407 2.21921C16.3742 2.37931 16.7689 2.63327 17.0893 2.96536C17.4213 3.28967 17.6753 3.68038 17.8356 4.11412C17.9723 4.46575 18.1364 4.99701 18.1794 5.96995C18.2263 7.02484 18.238 7.34122 18.238 10.0097C18.238 12.6783 18.2263 12.9908 18.1794 14.0457Z" />
      <path d="M10.0371 4.86414C7.20074 4.86414 4.89941 7.16531 4.89941 10.0019C4.89941 12.8384 7.20074 15.1396 10.0371 15.1396C12.8737 15.1396 15.1749 12.8384 15.1749 10.0019C15.1749 7.16531 12.8737 4.86414 10.0371 4.86414ZM10.0371 13.3346C8.19702 13.3346 6.70442 11.8421 6.70442 10.0019C6.70442 8.16159 8.19702 6.66914 10.0371 6.66914C11.8774 6.66914 13.3698 8.16159 13.3698 10.0019C13.3698 11.8421 11.8774 13.3346 10.0371 13.3346Z" />
      <path d="M16.5775 4.6611C16.5775 5.32346 16.0404 5.86052 15.3779 5.86052C14.7155 5.86052 14.1785 5.32346 14.1785 4.6611C14.1785 3.99858 14.7155 3.46167 15.3779 3.46167C16.0404 3.46167 16.5775 3.99858 16.5775 4.6611Z" />
    </g>
    <defs>
      <clipPath>
        <rect width="20" height="20" />
      </clipPath>
    </defs>
  </symbol>
  <symbol id="icon-linkedin" width="20" height="20" viewBox="0 0 20 20">
    <g clip-path="url(#clip0)">
      <path d="M19.9951 20.0001V19.9993H20.0001V12.6643C20.0001 9.07593 19.2276 6.31177 15.0326 6.31177C13.0159 6.31177 11.6626 7.41843 11.1101 8.4676H11.0517V6.64677H7.07422V19.9993H11.2159V13.3876C11.2159 11.6468 11.5459 9.96343 13.7017 9.96343C15.8259 9.96343 15.8576 11.9501 15.8576 13.4993V20.0001H19.9951Z" />
      <path d="M0.330078 6.64746H4.47675V20H0.330078V6.64746Z" />
      <path d="M2.40167 0C1.07583 0 0 1.07583 0 2.40167C0 3.7275 1.07583 4.82583 2.40167 4.82583C3.7275 4.82583 4.80333 3.7275 4.80333 2.40167C4.8025 1.07583 3.72667 0 2.40167 0V0Z" />
    </g>
    <defs>
      <clipPath>
        <rect width="20" height="20" />
      </clipPath>
    </defs>
  </symbol>
  <symbol id="icon-twitter" width="20" height="20" viewBox="0 0 20 20">
    <g clip-path="url(#clip0)">
      <path d="M20 3.79875C19.2563 4.125 18.4637 4.34125 17.6375 4.44625C18.4875 3.93875 19.1363 3.14125 19.4412 2.18C18.6488 2.6525 17.7738 2.98625 16.8412 3.1725C16.0887 2.37125 15.0162 1.875 13.8462 1.875C11.5763 1.875 9.74875 3.7175 9.74875 5.97625C9.74875 6.30125 9.77625 6.61375 9.84375 6.91125C6.435 6.745 3.41875 5.11125 1.3925 2.6225C1.03875 3.23625 0.83125 3.93875 0.83125 4.695C0.83125 6.115 1.5625 7.37375 2.6525 8.1025C1.99375 8.09 1.3475 7.89875 0.8 7.5975C0.8 7.61 0.8 7.62625 0.8 7.6425C0.8 9.635 2.22125 11.29 4.085 11.6712C3.75125 11.7625 3.3875 11.8062 3.01 11.8062C2.7475 11.8062 2.4825 11.7913 2.23375 11.7362C2.765 13.36 4.2725 14.5538 6.065 14.5925C4.67 15.6838 2.89875 16.3412 0.98125 16.3412C0.645 16.3412 0.3225 16.3263 0 16.285C1.81625 17.4563 3.96875 18.125 6.29 18.125C13.835 18.125 17.96 11.875 17.96 6.4575C17.96 6.27625 17.9538 6.10125 17.945 5.9275C18.7588 5.35 19.4425 4.62875 20 3.79875Z" />
    </g>
    <defs>
      <clipPath>
        <rect width="20" height="20" />
      </clipPath>
    </defs>
  </symbol>
    <symbol id="icon-antenna" viewBox="0 0 32 32">
      <path fill="var(--navyblue, #2e2f42)" d="M30.773 22.098l-8.443-8.505.937-4.615c.242.094.499.144.758.146h.006a2.159 2.159 0 10-2.008-1.435l-4.96.605L8.972.161a.534.534 0 00-.377-.16.532.532 0 00-.373.155L6.709 1.66a.534.534 0 000 .754l.814.826a14.943 14.943 0 002.519 17.663.513.513 0 00.146.098c-.034.18-.051.364-.052.547v6.187h-6.4a2.67 2.67 0 00-2.667 2.667v1.067c0 .295.239.533.533.533h24.533a.533.533 0 00.533-.533v-1.067a2.67 2.67 0 00-2.667-2.667h-6.4v-2.742a15.09 15.09 0 003.049.32 14.854 14.854 0 007.04-1.783l.818.823a.534.534 0 00.377.16.532.532 0 00.373-.155l1.513-1.504a.534.534 0 000-.754zM23.28 6.233a1.066 1.066 0 11.752 1.822h-.003a1.067 1.067 0 01-.747-1.823h-.002zm-1.256 3.505l-.598 2.946-1.175-1.182 1.774-1.763zm-.605-.902l-1.92 1.909-1.485-1.493 3.405-.415zM24.004 28.8a1.6 1.6 0 011.6 1.6v.533H2.137V30.4a1.6 1.6 0 011.6-1.6h20.267zm-7.467-2.133v1.067h-5.333v-1.067h5.333zM11.204 25.6v-4.053c0-1.294 1.196-2.347 2.667-2.347s2.667 1.053 2.667 2.347V25.6h-5.333zm6.4-1.696v-2.357c0-1.882-1.675-3.413-3.733-3.413a3.8 3.8 0 00-3.281 1.786A13.87 13.87 0 018.311 4.033l18.602 18.708a13.818 13.818 0 01-9.309 1.163zm11.289-.684L7.836 2.039l.755-.752 7.935 7.98c.004 0 .006.007.01.01l13.115 13.191-.757.752z" />
      <path fill="var(--iris, #4d5ae5)" d="M13.876 20.267h-.005a1.6 1.6 0 10-.004 3.2h.005a1.6 1.6 0 10.004-3.2zm.373 1.978a.534.534 0 01-.752-.756.534.534 0 01.373-.155.533.533 0 01.373.911h.005z" />
    </symbol>
      <symbol id="icon-astronaut" viewBox="0 0 32 32">
      <path fill="var(--iris, #4d5ae5)" d="M31.974 4.524a.534.534 0 00-.43-.363l-1.91-.278-.855-1.731c-.179-.365-.777-.365-.956 0l-.855 1.731-1.91.278a.535.535 0 00-.296.91l1.383 1.348-.326 1.903c-.034.2.048.402.212.522a.53.53 0 00.562.04l1.709-.899 1.709.899a.536.536 0 00.775-.563l-.326-1.903 1.383-1.348a.536.536 0 00.135-.547zm-2.463 1.327a.534.534 0 00-.153.472l.191 1.114-1-.526a.533.533 0 00-.498 0l-1.001.526.191-1.114a.534.534 0 00-.153-.472l-.81-.789 1.119-.163a.532.532 0 00.402-.292l.5-1.013.5 1.013a.535.535 0 00.402.292l1.119.163-.809.789zM26.133 20.522h-1.067v1.067h1.067v-1.067zM26.133 22.656h-1.067v1.067h1.067v-1.067zM27.2 21.589h-1.067v1.067H27.2v-1.067zM25.067 21.589H24v1.067h1.067v-1.067zM22.4 26.389h-1.067v1.067H22.4v-1.067zM22.4 28.522h-1.067v1.067H22.4v-1.067zM23.467 27.456H22.4v1.067h1.067v-1.067zM21.333 27.456h-1.067v1.067h1.067v-1.067zM16 24.256h-1.067v1.067H16v-1.067zM16 26.389h-1.067v1.067H16v-1.067zM17.067 25.322H16v1.067h1.067v-1.067zM14.933 25.322h-1.067v1.067h1.067v-1.067zM5.866 6.122H4.799v1.067h1.067V6.122zM5.866 8.255H4.799v1.067h1.067V8.255z" />
      <path fill="var(--iris, #4d5ae5)" d="M6.933 7.189H5.866v1.067h1.067V7.189zM4.8 7.189H3.733v1.067H4.8V7.189z" />
      <path fill="var(--navyblue, #2e2f42)" d="M24.715 14.159a1.775 1.775 0 00-1.188-.705 1.778 1.778 0 00-1.34.352l-1.252.96-1.898 1.417-1.358-.541c2.421-1.086 4.114-3.508 4.114-6.32 0-3.823-3.123-6.933-6.961-6.933s-6.961 3.11-6.961 6.933a6.86 6.86 0 001.12 3.758l-2.764-.024h-.005c-.009 0-.015.004-.023.005a.515.515 0 00-.155.031l-.038.013c-.006.003-.013.003-.019.006l-3.233 1.596-.001.001-1.893.911a.397.397 0 00-.063.035 1.779 1.779 0 00-.598 2.295c.22.429.595.745 1.056.889a1.776 1.776 0 001.378-.128l1.388-.738 2.264-1.169 1.357-.008L2.2 22.211l-.002.001-1.339 1.333c-.316.315-.49.732-.49 1.178s.174.863.49 1.179c.325.323.752.485 1.179.485s.854-.162 1.18-.485l1.314-1.309 1.741-1.3.901.897-1.762 1.754-.002.001-1.339 1.333c-.316.315-.49.732-.49 1.178s.174.863.49 1.179c.325.323.753.485 1.18.485s.855-.162 1.18-.485l3.482-3.467.001-.002 1.01-1-.004-.004c.006-.006.015-.009.022-.015l5.166-5.658 3.471.494a.52.52 0 00.262-.033c.018-.006.033-.015.05-.023.019-.01.039-.015.058-.027l3.213-2.133c.012-.008.018-.021.029-.029.013-.01.029-.014.041-.026l1.271-1.191c.662-.62.753-1.635.212-2.362zM2.13 17.77a.714.714 0 01-.558.052.717.717 0 01-.213-1.26l1.314-.632.449 1.313-.992.527zm3.498-1.828l-1.548.8-.439-1.283 2.027-1.001-.04 1.484zm15.099-6.62a5.79 5.79 0 01-.599 2.559l-4.181-1.899a1.863 1.863 0 00-.788-1.388l1.464-4.86c2.378.756 4.105 2.974 4.105 5.588zm-11.789 0c0-3.235 2.644-5.867 5.894-5.867.253 0 .5.021.745.052l-1.432 4.754c-.019-.001-.037-.006-.057-.006-1.033 0-1.873.837-1.873 1.867s.84 1.867 1.873 1.867c.694 0 1.294-.383 1.618-.945l3.862 1.755a5.894 5.894 0 01-4.737 2.39c-3.25 0-5.894-2.632-5.894-5.867zm5.956.8c0 .441-.362.8-.806.8s-.806-.359-.806-.8c0-.441.362-.8.806-.8s.806.359.806.8zM2.465 25.146a.608.608 0 01-.854.001.592.592 0 010-.844l.962-.959.851.848-.959.955zm3.214 3.734a.608.608 0 01-.855.001.592.592 0 010-.844l.963-.959.852.848-.96.955zm3.481-3.469l-.002.001-1.765 1.76-.852-.848 1.763-1.755.002-.001c.04-.04.065-.088.09-.135.007-.014.02-.026.026-.04.017-.041.019-.085.026-.129.003-.025.014-.047.014-.073 0-.036-.013-.07-.02-.106-.006-.032-.006-.065-.019-.095a.55.55 0 00-.091-.138c-.01-.012-.014-.027-.025-.038h-.001l-.001-.002-1.607-1.6c-.017-.017-.039-.024-.058-.038a.507.507 0 00-.087-.058.515.515 0 00-.093-.033.507.507 0 00-.103-.02.5.5 0 00-.095.005.53.53 0 00-.104.02.477.477 0 00-.094.045c-.02.011-.042.015-.061.029L4.23 23.486l-.901-.897 2.399-2.386 4.361 4.289-.928.919zm6.819-7.017c-.015-.002-.03.004-.045.003a.556.556 0 00-.3.075.492.492 0 00-.083.061c-.013.011-.028.017-.04.029l-4.698 5.146-4.328-4.257 2.833-2.818a.534.534 0 00-.379-.911v-.001l-2.219.013.028-1.607 3.104.027a6.947 6.947 0 004.981 2.101c.437 0 .864-.045 1.279-.123.04.032.079.065.13.085l2.41.96.152.758.178.885-3.003-.427zm4.041.178l-.313-1.558 1.446-1.08.947 1.257-2.08 1.381zm3.754-2.831l-.838.785-.931-1.236.831-.637a.735.735 0 01.543-.143.718.718 0 01.48.284.713.713 0 01-.085.947z" />
      <path fill="var(--navyblue, #2e2f42)" d="M13.602 18.544l-2.143-2.133a.534.534 0 00-.753 0l-2.142 2.133a.537.537 0 000 .756l2.142 2.133a.536.536 0 00.753 0l2.143-2.133a.535.535 0 000-.756zm-2.519 1.759l-1.387-1.381 1.387-1.381 1.387 1.381-1.387 1.381zM17.164 5.071l-.258 1.036c.071.018 1.738.452 1.738 2.149h1.067c0-2.017-1.666-2.965-2.547-3.185zM19.711 9.322h-1.067v1.067h1.067V9.322z" />
    </symbol>
    <symbol id="icon-diagram" viewBox="0 0 32 32">
      <path fill="var(--iris, #4d5ae5)" d="M14.926 14.965h1.066v4.798h-1.066v-4.797zM19.19 17.097h1.066v2.665H19.19v-2.665zM10.661 18.696h1.066v1.066h-1.066v-1.066zM7.463 18.163h1.066v1.599H7.463v-1.599z" />
      <path fill="var(--navyblue, #2e2f42)" d="M1.599 28.291h25.587a1.6 1.6 0 001.599-1.599V24.56a1.6 1.6 0 00-1.599-1.599h-.533V9.668L29.681 6.8a1.608 1.608 0 10-.746-.763L26.654 8.2V6.97a1.6 1.6 0 00-1.599-1.599H3.733A1.6 1.6 0 002.134 6.97v15.992h-.533a1.6 1.6 0 00-1.599 1.599v2.132a1.6 1.6 0 001.599 1.599zM30.384 4.837a.533.533 0 110 1.067.533.533 0 010-1.067zM3.198 6.969c0-.294.239-.533.533-.533h21.322c.294 0 .533.239.533.533v2.239l-1.066 1.013V8.035a.533.533 0 00-.533-.533H4.797a.533.533 0 00-.533.533v13.326c0 .294.239.533.533.533h19.19a.533.533 0 00.533-.533v-9.674l1.066-1.01v12.284H3.198V6.969zm4.798 6.93a1.598 1.598 0 101.107 2.749l1.853.93a.532.532 0 00.636-.123l3.939-4.431 3.872 2.901a.533.533 0 00.686-.039l3.365-3.188v8.131H5.33V8.569h18.124v2.66l-3.771 3.572-3.904-2.927a.533.533 0 00-.718.072l-3.993 4.493-1.493-.746c.011-.064.018-.129.02-.193a1.6 1.6 0 00-1.599-1.599zm.533 1.599a.533.533 0 11-1.067 0 .533.533 0 011.067 0zm3.198 8.528h5.331v.533a.533.533 0 01-.533.533h-4.264a.533.533 0 01-.533-.533v-.533zm-10.661.534c0-.294.239-.533.533-.533h9.062v.533a1.6 1.6 0 001.599 1.599h4.264a1.6 1.6 0 001.599-1.599v-.533h9.062c.294 0 .533.239.533.533v2.132a.533.533 0 01-.533.533H1.598a.533.533 0 01-.533-.533V24.56z" />
    </symbol>
    <symbol id="icon-clock" viewBox="0 0 32 32">
      <path fill="var(--navyblue, #2e2f42)" d="M31.297 15.301C31.295 6.849 24.442-.002 15.989 0S.686 6.855.688 15.308a15.304 15.304 0 0010.649 14.576.662.662 0 00.529-.065.637.637 0 00.283-.356l3.865-12.25a1.912 1.912 0 10-.84-3.635l-5.106-5.107a.637.637 0 00-.902.902l5.103 5.109a1.876 1.876 0 00.536 2.309l-3.683 11.673C3.844 25.783.118 17.71 2.799 10.432S13.553-.572 20.831 2.109s11.004 10.754 8.323 18.032a14.042 14.042 0 01-7.462 7.973l-.398-1.874a.638.638 0 00-1.048-.344l-3.837 3.426a.637.637 0 00.231 1.084l4.899 1.563a.638.638 0 00.819-.74l-.391-1.839a15.255 15.255 0 009.329-14.089zm-15.305-.637a.638.638 0 110 1.277.638.638 0 010-1.277zm2.101 14.864l2.184-1.948.603 2.84-2.787-.892z" />
      <path fill="var(--iris, #4d5ae5)" d="M15.354 3.185V4.46a.638.638 0 101.276 0V3.185a.638.638 0 00-1.276 0zM3.876 14.664a.638.638 0 000 1.276h1.275a.638.638 0 100-1.276H3.876zM28.108 15.939a.638.638 0 100-1.276h-1.275a.638.638 0 000 1.276h1.275z" />
    </symbol>
      <symbol id="icon-customer-3" viewBox="0 0 32 32">
      <path d="M5.466 31.103a.088.088 0 01.059.025l.153.161c-.119.13-.266.234-.431.305a1.532 1.532 0 01-.611.109 1.496 1.496 0 01-.574-.102 1.25 1.25 0 01-.712-.733 1.618 1.618 0 01-.098-.571c-.003-.195.033-.39.105-.573.067-.166.168-.317.297-.445.131-.126.287-.224.459-.29.189-.07.389-.104.591-.102.188-.004.375.027.549.093.152.063.291.15.412.257l-.128.171a.122.122 0 01-.033.031.084.084 0 01-.052.013.123.123 0 01-.056-.018l-.069-.046-.096-.058a.978.978 0 00-.302-.103 1.238 1.238 0 00-.228-.018 1.12 1.12 0 00-.425.077.96.96 0 00-.333.215.997.997 0 00-.216.343c-.054.145-.08.298-.078.452-.002.156.024.312.078.46.047.126.119.242.212.341a.863.863 0 00.318.212c.125.049.259.074.394.073.078.001.156-.004.234-.015a.87.87 0 00.354-.122c.054-.034.104-.072.151-.113a.115.115 0 01.073-.029zM9.888 30.296c.002.194-.033.386-.103.567-.062.165-.161.315-.288.44s-.282.224-.452.289a1.711 1.711 0 01-1.164 0 1.281 1.281 0 01-.741-.735 1.61 1.61 0 010-1.136c.065-.166.164-.317.291-.447.128-.121.281-.216.45-.279.374-.139.79-.139 1.164 0 .17.066.324.165.452.29.126.127.224.276.289.44.071.183.106.376.103.571zm-.402 0a1.313 1.313 0 00-.073-.456.898.898 0 00-.528-.556 1.23 1.23 0 00-.846 0 .901.901 0 00-.531.556 1.465 1.465 0 000 .912.888.888 0 00.531.554c.273.097.573.097.846 0a.884.884 0 00.528-.554c.051-.147.076-.301.073-.456zM12.905 30.774l.04.102a3.46 3.46 0 01.044-.102.933.933 0 01.05-.1l.978-1.694c.019-.029.036-.047.056-.053a.217.217 0 01.08-.009h.289v2.755h-.343v-2.026-.086a.753.753 0 010-.095l-.984 1.718c-.012.026-.033.047-.058.063s-.054.023-.084.023h-.056a.154.154 0 01-.141-.086l-1.013-1.729V31.668h-.331v-2.75h.289a.24.24 0 01.08.009c.024.011.043.03.054.053l.999 1.696c.02.031.036.064.05.098zM16.586 30.638v1.032h-.383v-2.752h.854a1.67 1.67 0 01.477.06.912.912 0 01.337.171.699.699 0 01.191.27.905.905 0 01.065.352.84.84 0 01-.071.352.744.744 0 01-.207.275.936.936 0 01-.339.182 1.498 1.498 0 01-.461.064l-.463-.007zm0-.296h.463a.992.992 0 00.297-.042.617.617 0 00.214-.119.488.488 0 00.13-.182.579.579 0 00.046-.232.522.522 0 00-.172-.412.766.766 0 00-.515-.148h-.463v1.134zM21.731 31.673h-.302a.133.133 0 01-.084-.026.164.164 0 01-.05-.064l-.26-.666h-1.307l-.27.666a.145.145 0 01-.048.062.132.132 0 01-.086.027h-.302l1.148-2.756h.398l1.164 2.756zm-1.895-1.023h1.08l-.456-1.122a1.828 1.828 0 01-.086-.259l-.044.144c-.013.044-.029.084-.042.117l-.452 1.12zM23.385 28.931a.16.16 0 01.057.049l1.675 2.077v-.097V28.918h.343v2.756h-.191a.173.173 0 01-.078-.016.2.2 0 01-.061-.051l-1.673-2.075a.753.753 0 010 .095v2.048h-.343v-2.756h.203a.163.163 0 01.069.013zM28.281 30.577v1.094h-.383v-1.094l-1.059-1.66h.343a.124.124 0 01.082.024.256.256 0 01.052.062l.662 1.071a1.256 1.256 0 01.117.245l.05-.119c.019-.043.04-.085.065-.126l.653-1.078a.274.274 0 01.05-.058.116.116 0 01.082-.027h.346l-1.06 1.667zM12.715 24.293c.167.02.335.036.505.051 2.583-1.101 4.768-2.902 6.282-5.18s2.29-4.929 2.231-7.624l-2.846-2.712c.579 2.869.308 5.836-.782 8.567s-2.956 5.12-5.389 6.898z" />
      <path d="M11.699 24.167l.076.015c2.6-1.772 4.583-4.247 5.691-7.104s1.292-5.965.526-8.922l-4.054-3.862c1.64 3.175 2.3 6.728 1.903 10.246s-1.833 6.857-4.143 9.628zM25.448 14.725c-.689 2.961-2.362 5.632-4.77 7.616a15.094 15.094 0 01-2.266 1.55c1.961-.549 3.764-1.52 5.269-2.838s2.672-2.947 3.412-4.763l-1.644-1.565z" />
      <path d="M24.803 14.289l-2.341-2.23c-.045 2.543-.804 5.028-2.197 7.197s-3.372 3.943-5.729 5.137h.012c.525 0 1.05-.03 1.571-.089 2.203-.857 4.148-2.219 5.664-3.967s2.553-3.825 3.021-6.047zM12.038 2.664L9.245 0C6.748.919 4.601 2.535 3.084 4.636S.752 9.225.744 11.775c.009 2.818 1.005 5.552 2.829 7.77s4.372 3.793 7.242 4.476c2.561-2.973 4.061-6.647 4.281-10.488s-.851-7.648-3.058-10.869zM31.256 13.878c-.01-3.343-1.409-6.546-3.89-8.91s-5.843-3.696-9.352-3.706a13.655 13.655 0 00-4.741.841l17.099 16.291c.585-1.44.885-2.971.884-4.515z" />
    </symbol>
    <symbol id="icon-customer-2" viewBox="0 0 32 32">
      <path d="M14.14 1.806h.084c.156 0 .324.016.49.03.734.052 1.463.162 2.179.329V.403a12.97 12.97 0 00-2.25-.358 18.11 18.11 0 00-.909-.044h-.263a18.35 18.35 0 00-4.515.582 18.3 18.3 0 00-4.79 1.948v17.475a19.484 19.484 0 014.566-1.779 19.948 19.948 0 013.833-.588h.051c.216-.011.433-.017.655-.019v-1.79a21.155 21.155 0 00-4.982.662 23.81 23.81 0 00-1.731.513l-.623.211V3.591l.266-.128a17.409 17.409 0 016.471-1.651.523.523 0 01.056 0c.248-.013.497-.019.741-.019h.28c.129.003.258.006.388.014z" />
      <path d="M18.53 3.651a15.823 15.823 0 01-2.606-.211c-.277-.047-.55-.103-.814-.164v17.275a13.82 13.82 0 003.425.404 18.396 18.396 0 004.515-.581 18.362 18.362 0 004.792-1.948V1.263a19.58 19.58 0 01-4.564 1.781 19.388 19.388 0 01-4.747.609zm6.907.299l.623-.21v13.63l-.266.128a17.055 17.055 0 01-3.184 1.144c-1.331.344-2.7.522-4.074.527-.411 0-.819-.017-1.214-.052l-.427-.038V5.062l.497.033c.361.023.735.034 1.141.034a21.092 21.092 0 005.173-.663 26.802 26.802 0 001.731-.518zM5.377 25.977a.912.912 0 00-.693-.28 1.034 1.034 0 00-.4.075.91.91 0 00-.512.518 1.023 1.023 0 00-.072.387v2.335c-.006.165.026.328.092.479.055.12.135.226.234.313a.815.815 0 00.321.166c.114.032.231.048.349.049a.972.972 0 00.892-.61.951.951 0 00.075-.372v-.261h-.61v.208a.528.528 0 01-.036.208.359.359 0 01-.089.131.365.365 0 01-.128.067.425.425 0 01-.128.022.314.314 0 01-.286-.125.548.548 0 01-.081-.313v-2.177a.738.738 0 01.075-.349.31.31 0 01.299-.141.33.33 0 01.272.131c.068.09.104.2.101.313v.202h.604v-.238a1.093 1.093 0 00-.279-.737zM9.002 25.95a1.051 1.051 0 00-1.38 0 .961.961 0 00-.237.327 1.099 1.099 0 00-.089.452v2.239a1.08 1.08 0 00.089.459c.055.12.136.227.237.313a.94.94 0 00.322.197 1.028 1.028 0 00.728 0c.121-.044.233-.111.33-.197a.948.948 0 00.23-.313 1.08 1.08 0 00.089-.459v-2.239a1.08 1.08 0 00-.089-.452 1.015 1.015 0 00-.23-.327zm-.284 3.019a.405.405 0 01-.121.324.445.445 0 01-.574 0 .397.397 0 01-.121-.324V26.73a.405.405 0 01.121-.324.445.445 0 01.574 0 .397.397 0 01.121.324v2.239zM13.764 29.969V25.73h-.587l-.771 2.244h-.011l-.777-2.244h-.581v4.239h.606V27.39h.011l.593 1.823h.302l.598-1.823h.011v2.579h.606zM17.205 26.027a.844.844 0 00-.342-.232 1.363 1.363 0 00-.439-.066h-.9v4.239h.604v-1.656h.311c.189.009.376-.031.545-.116a.882.882 0 00.332-.324 1.02 1.02 0 00.139-.369c.024-.16.035-.321.033-.482a2.421 2.421 0 00-.059-.606.898.898 0 00-.223-.39zm-.311 1.292a.547.547 0 01-.056.221.346.346 0 01-.156.149.619.619 0 01-.285.053h-.276v-1.441h.311a.578.578 0 01.272.053.349.349 0 01.142.157.62.62 0 01.053.236v.282c0 .099.006.2 0 .291h-.006zM20.066 25.73h-.495l-.934 4.239h.604l.177-.911h.823l.177.911h.604l-.957-4.239zm-.557 2.751l.297-1.537h.011l.296 1.537h-.604zM23.969 28.284h-.011l-.912-2.554h-.581v4.239h.604V27.42h.012l.923 2.549h.568V25.73h-.604v2.554zM27.66 25.73l-.486 1.685h-.012l-.486-1.685h-.64l.83 2.447v1.792h.604v-1.792l.83-2.447h-.64zM3.692 31.166h.291v.817h.198v-.817h.29v-.167h-.778v.167zM6.14 30.998l-.381.984h.21l.081-.224h.392l.084.224h.215l-.391-.984h-.21zm-.032.595l.134-.365.134.365h-.268zM8.559 31.62h.227v.127a.38.38 0 01-.233.083.244.244 0 01-.209-.093.411.411 0 01-.073-.257c0-.219.095-.329.283-.329a.206.206 0 01.222.157l.195-.038c-.042-.192-.181-.289-.417-.289a.495.495 0 00-.344.127.494.494 0 00-.141.379.532.532 0 00.126.369.477.477 0 00.374.144.59.59 0 00.417-.157v-.388h-.427v.166zM11.029 30.998h-.199v.984h.69v-.167h-.49v-.817zM13.118 30.998h-.199v.984h.199v-.984zM15.161 31.656l-.403-.657h-.193v.984h.185v-.643l.395.643h.198v-.984h-.182v.657zM17.007 31.549h.49v-.167h-.49v-.216h.528v-.167h-.727v.984h.747v-.167h-.548v-.266zM21.484 31.387h-.388v-.388h-.198v.984h.198v-.43h.388v.43h.198v-.984h-.198v.388zM23.342 31.549h.492v-.167h-.492v-.216h.529v-.167h-.727v.984h.746v-.167h-.548v-.266zM25.86 31.549c.171-.027.258-.117.258-.274a.236.236 0 00-.096-.219.553.553 0 00-.288-.058h-.417v.984h.198v-.412h.039a.261.261 0 01.123.022.21.21 0 01.07.072l.215.313h.237l-.12-.192a.685.685 0 00-.218-.236zm-.199-.136h-.146v-.247h.156a.526.526 0 01.201.023c.014.013.026.029.033.046a.133.133 0 01-.005.111.128.128 0 01-.037.043.547.547 0 01-.201.023zM27.76 31.549h.49v-.167h-.49v-.216h.529v-.167h-.729v.984h.747v-.167h-.548v-.266z" />
    </symbol>
    <symbol id="icon-customer-1" viewBox="0 0 32 32">
      <path d="M5.44 0l4.677 4.428h13.046v12.351l4.677 4.428V.001H5.44z" />
      <path d="M1.6 4.241v20.6h21.76v-8.188L10.255 4.247 1.6 4.242zm17.615 17.587H5.043V7.974h1.002V20.89h13.17v.938zM7.866 28.662l.523-1.078h.438l-.762 1.438v.837h-.397v-.837l-.764-1.438h.439l.523 1.078zm2.247.667h-.881l-.184.53h-.411l.859-2.275h.355l.861 2.275H10.3l-.186-.53zm-.77-.319h.659l-.33-.944-.33.944zm2.328.234c0-.105.029-.202.086-.289.057-.089.17-.193.339-.314-.088-.111-.151-.206-.186-.284s-.052-.154-.052-.227c0-.178.054-.319.162-.422s.254-.156.438-.156a.57.57 0 01.406.147.47.47 0 01.159.361.5.5 0 01-.072.262.879.879 0 01-.236.238l-.155.113.439.519a.9.9 0 00.095-.417h.33c0 .28-.066.51-.197.689l.334.395h-.441l-.128-.152c-.162.122-.356.183-.581.183s-.405-.059-.541-.178a.599.599 0 01-.202-.467zm.753.343a.58.58 0 00.359-.128l-.497-.586-.048.034c-.125.095-.188.203-.188.325 0 .105.034.191.102.256s.158.098.272.098zm-.209-1.466c0 .087.054.197.161.33l.173-.119.048-.039a.28.28 0 00.097-.22.2.2 0 00-.067-.152.236.236 0 00-.17-.064c-.074 0-.133.025-.177.075s-.066.113-.066.189zm4.133.997a.827.827 0 01-.269.569c-.156.135-.364.203-.623.203a.902.902 0 01-.48-.128c-.137-.086-.244-.209-.319-.367s-.114-.342-.117-.552v-.212c0-.215.038-.404.114-.567a.86.86 0 01.821-.511c.251 0 .453.068.606.205s.242.329.267.578h-.394c-.019-.164-.067-.281-.144-.353-.076-.073-.188-.109-.336-.109a.464.464 0 00-.397.189c-.092.125-.139.309-.141.552v.202c0 .246.044.433.131.563s.218.194.387.194c.155 0 .272-.035.35-.105s.128-.186.148-.348h.394zm2.17-.338c0 .223-.039.419-.116.588a.884.884 0 01-.331.388.905.905 0 01-.494.134.926.926 0 01-.494-.134.896.896 0 01-.334-.386 1.362 1.362 0 01-.119-.576v-.128c0-.222.039-.418.117-.588a.887.887 0 01.333-.389c.144-.091.308-.136.494-.136s.349.045.492.134c.144.088.255.217.333.384s.118.361.119.583v.127zm-.396-.118c0-.252-.048-.445-.144-.58a.468.468 0 00-.405-.202.467.467 0 00-.402.202c-.096.133-.145.322-.147.567v.131c0 .25.048.443.145.58a.473.473 0 00.406.205.464.464 0 00.403-.2c.095-.133.142-.328.142-.584v-.119z" />
    </symbol>
    <symbol id="icon-customer-6" viewBox="0 0 104 56">
  <g>
    <g id="group">
      <g id="Object">
        <path id="Vector" d="M53.5293 27.4433C53.0853 26.8524 52.8729 26.1542 52.9233 25.4513V22.5632C52.9233 21.6779 53.1242 21.0051 53.5259 20.5448C53.9277 20.0845 54.6177 19.8554 55.596 19.8573C56.5153 19.8573 57.1679 20.0532 57.5537 20.4449C57.9746 20.9447 58.1794 21.556 58.1325 22.1725V22.8512H56.488V22.1637C56.4939 21.9386 56.4779 21.7136 56.4404 21.4909C56.4167 21.3386 56.3339 21.1977 56.2055 21.0913C56.0366 20.9766 55.8239 20.921 55.6096 20.9356C55.3843 20.9211 55.1609 20.9797 54.9832 21.1001C54.8399 21.218 54.7444 21.3725 54.7108 21.5408C54.6636 21.7765 54.642 22.0155 54.6461 22.2547V25.7598C54.6202 26.0979 54.6927 26.4363 54.8572 26.744C54.939 26.8482 55.0526 26.9307 55.1854 26.9826C55.3182 27.0344 55.465 27.0536 55.6096 27.0378C55.8203 27.0528 56.0293 26.9958 56.1918 26.8792C56.3258 26.7644 56.412 26.6147 56.437 26.4532C56.4754 26.2206 56.4925 25.9858 56.488 25.751V25.04H58.1325V25.6893C58.1787 26.3319 57.9789 26.9699 57.5639 27.505C57.186 27.9339 56.5425 28.1484 55.596 28.1484C54.6495 28.1484 53.9345 27.9193 53.5293 27.4433Z" />
        <path id="Vector_2" d="M60.3763 27.4727C59.961 27.0232 59.7533 26.368 59.7533 25.5013V22.4633C59.7533 21.6054 59.961 20.9561 60.3763 20.5154C60.7917 20.0747 61.4863 19.8554 62.46 19.8573C63.4269 19.8573 64.1181 20.0767 64.5334 20.5154C64.9488 20.9561 65.1599 21.6054 65.1599 22.4633V25.5013C65.1599 26.3592 64.9488 27.0173 64.5266 27.4697C64.1044 27.9222 63.4167 28.1484 62.46 28.1484C61.5033 28.1484 60.7951 27.9193 60.3763 27.4727ZM63.226 26.744C63.3748 26.4625 63.4425 26.154 63.4235 25.845V22.1255C63.4426 21.8224 63.376 21.5199 63.2294 21.2441C63.146 21.1377 63.0296 21.0538 62.8936 21.0019C62.7575 20.9499 62.6073 20.932 62.46 20.9503C62.3123 20.9325 62.1617 20.9506 62.0252 21.0025C61.8887 21.0544 61.7717 21.138 61.6871 21.2441C61.5374 21.5191 61.4695 21.8221 61.4897 22.1255V25.8626C61.469 26.1718 61.5368 26.4805 61.6871 26.7617C61.783 26.8564 61.9013 26.9324 62.034 26.9845C62.1667 27.0365 62.3108 27.0634 62.4566 27.0634C62.6024 27.0634 62.7465 27.0365 62.8792 26.9845C63.0119 26.9324 63.1302 26.8564 63.226 26.7617V26.744Z" />
        <path id="Vector_3" d="M67.1378 19.946H68.9083L70.2395 25.5512L71.6014 19.946H73.3242L73.4978 28.0365H72.2244L72.0883 22.4137L70.774 28.0365H69.7526L68.3907 22.3931L68.2648 28.0365H66.9778L67.1378 19.946Z" />
        <path id="Vector_4" d="M75.4829 19.946H78.2406C79.8295 19.946 80.6239 20.7118 80.6239 22.2433C80.6239 23.7102 79.7875 24.4427 78.1147 24.4407H77.175V28.0365H75.4727L75.4829 19.946ZM77.8389 23.4037C78.0071 23.4221 78.1779 23.4088 78.3396 23.3647C78.5012 23.3206 78.6499 23.2467 78.7752 23.1481C78.9704 22.8749 79.0565 22.554 79.0203 22.2345C79.0292 21.9877 79.0018 21.7409 78.9386 21.5001C78.9143 21.4196 78.8717 21.3442 78.8133 21.2781C78.7548 21.212 78.6817 21.1567 78.5981 21.1152C78.3618 21.0174 78.1006 20.973 77.8389 20.986H77.1784V23.4037H77.8389Z" />
        <path id="Vector_5" d="M83.0787 19.946H84.907L86.783 28.0365H85.1964L84.8253 26.171H83.1945L82.8132 28.0365H81.2028L83.0787 19.946ZM84.6415 25.2339L84.0048 21.8379L83.3681 25.2339H84.6415Z" />
        <path id="Vector_6" d="M88.2981 19.946H89.4897L91.7709 24.5612V19.946H93.1838V28.0365H92.0501L89.7553 23.2186V28.0365H88.2947L88.2981 19.946Z" />
        <path id="Vector_7" d="M96.4932 24.9516L94.5968 19.9573H96.1936L97.3512 23.1654L98.4373 19.9573H100L98.1274 24.9516V28.0363H96.4932V24.9516Z" />
        <path id="Vector_8" d="M56.1579 31.5736V31.9967H54.7688V35.2842H54.1866V31.9967H52.7906V31.5736H56.1579Z" />
        <path id="Vector_9" d="M60.5123 35.2844H60.0629C60.0173 35.2869 59.9722 35.2743 59.9369 35.2492C59.9029 35.2277 59.8769 35.1981 59.862 35.164L59.4603 34.2827H57.5332L57.1314 35.164C57.12 35.2009 57.0991 35.235 57.0702 35.2639C57.0345 35.2885 56.9897 35.301 56.9442 35.2991H56.4948L58.1971 31.5887H58.7895L60.5123 35.2844ZM57.6932 33.9066H59.3003L58.6193 32.3966C58.5691 32.2824 58.527 32.1657 58.4933 32.047C58.4695 32.1175 58.4491 32.1851 58.4286 32.2439L58.3674 32.3996L57.6932 33.9066Z" />
        <path id="Vector_10" d="M63.4472 34.9202C63.5538 34.925 63.6606 34.925 63.7672 34.9202C63.8593 34.912 63.9504 34.8972 64.0396 34.8761C64.123 34.8584 64.2049 34.8359 64.2848 34.8085C64.3597 34.7821 64.4346 34.7498 64.5129 34.7174V33.883H63.8319C63.8151 33.8838 63.7982 33.8816 63.7824 33.8766C63.7666 33.8715 63.7522 33.8637 63.74 33.8536C63.7288 33.8453 63.72 33.8349 63.7141 33.8232C63.7082 33.8115 63.7054 33.7988 63.706 33.786V33.501H65.027V34.9231C64.9192 34.9897 64.8053 35.0486 64.6865 35.0994C64.5651 35.1511 64.4386 35.1934 64.3086 35.2257C64.1694 35.2611 64.027 35.2866 63.883 35.3021C63.7179 35.3179 63.552 35.3258 63.3859 35.3256C63.0923 35.3278 62.8009 35.2809 62.5279 35.1875C62.273 35.0991 62.0414 34.9672 61.847 34.7997C61.6574 34.6305 61.5082 34.4309 61.4078 34.2121C61.3005 33.9661 61.2474 33.705 61.2512 33.4423C61.2476 33.1778 61.2995 32.9151 61.4044 32.6666C61.5023 32.4467 61.6518 32.2466 61.8436 32.079C62.0379 31.912 62.2696 31.7811 62.5245 31.6941C62.8161 31.5994 63.1255 31.5526 63.437 31.556C63.5955 31.5558 63.7537 31.5666 63.9102 31.5883C64.0486 31.6077 64.1844 31.6392 64.3154 31.6823C64.4345 31.7209 64.5486 31.7701 64.6559 31.8292C64.7602 31.8872 64.8593 31.952 64.9521 32.0231L64.7887 32.2523C64.7759 32.2732 64.7568 32.2908 64.7334 32.3032C64.7101 32.3156 64.6833 32.3224 64.6559 32.3228C64.6182 32.3218 64.5816 32.3116 64.5503 32.2934C64.4993 32.2699 64.4448 32.2406 64.3835 32.2053C64.3111 32.1661 64.2348 32.1327 64.1554 32.1054C64.0539 32.0703 63.9491 32.0427 63.8421 32.0231C63.6995 32.0005 63.5547 31.9896 63.4097 31.9908C63.1851 31.9887 62.9621 32.0236 62.7526 32.0936C62.5632 32.1592 62.3924 32.2595 62.2522 32.3875C62.1111 32.5209 62.0033 32.6779 61.9355 32.8488C61.7834 33.2506 61.7834 33.6838 61.9355 34.0857C62.01 34.2602 62.126 34.4194 62.276 34.5529C62.4156 34.6802 62.5851 34.7804 62.7731 34.8467C62.9896 34.9108 63.219 34.9359 63.4472 34.9202Z" />
        <path id="Vector_11" d="M68.8744 34.8611H70.7334V35.2842H68.3058V31.5736H68.888L68.8744 34.8611Z" />
        <path id="Vector_12" d="M72.6672 35.2842H72.085V31.5736H72.6672V35.2842Z" />
        <path id="Vector_13" d="M74.8325 31.5913C74.8671 31.6083 74.8973 31.6313 74.9211 31.6589L77.4098 34.4559C77.4065 34.4119 77.4065 34.3677 77.4098 34.3237C77.4098 34.2826 77.4098 34.2414 77.4098 34.2032V31.559H77.9171V35.2845H77.6243C77.581 35.2875 77.5374 35.2804 77.4984 35.2639C77.463 35.2454 77.4319 35.2215 77.4064 35.1934L74.9211 32.3993C74.9211 32.4433 74.9211 32.4845 74.9211 32.5256C74.9211 32.5667 74.9211 32.6049 74.9211 32.6402V35.2845H74.4342V31.5737H74.7372C74.7701 31.5737 74.8025 31.5797 74.8325 31.5913Z" />
        <path id="Vector_14" d="M82.2037 31.5736V31.982H80.1405V33.2071H81.8122V33.6008H80.1405V34.8671H82.2037V35.2754H79.5413V31.5736H82.2037Z" />
        <path id="Vector_15" d="M21.1952 8.65871L47.047 14.9927V37.1883L21.1952 30.8572V8.65871ZM19.5371 6.76672V31.9354L48.7017 39.0832V13.9175L19.5371 6.76672Z" />
        <path id="Vector_16" d="M35.168 50.7667L6 43.6129V18.4469L35.168 25.5977V50.7667Z" />
        <path id="Vector_17" d="M20.0205 8.37371L45.5352 14.6283L34.6845 23.9941L9.16636 17.7365L20.0205 8.37371ZM19.537 6.76672L6 18.4475L35.168 25.5981L48.7016 13.9174L19.537 6.76672Z" />
        <path id="Vector_18" d="M36.8091 49.3509L48.7016 39.0863L36.8091 36.1691V49.3509Z" />
      </g>
    </g>
  </g>
</symbol>
<symbol id="icon-customer-4" viewBox="0 0 104 56">
  <path d="M24.0782 21.5179H24.0753C21.6897 21.5179 19.7557 23.2616 19.7557 25.4124V25.415C19.7557 27.5658 21.6897 29.3094 24.0753 29.3094H24.0782C26.4638 29.3094 28.3978 27.5658 28.3978 25.415V25.4124C28.3978 23.2616 26.4638 21.5179 24.0782 21.5179Z" />
  <path d="M55.9614 20.273C55.9547 17.2855 54.6356 14.4221 52.2929 12.3094C49.9502 10.1967 46.7746 9.00678 43.4611 9V9C40.1466 9.00543 36.9696 10.1948 34.6257 12.3076C32.2817 14.4205 30.9619 17.2846 30.9551 20.273V36.7472C30.9551 36.7472 55.9586 34.2364 55.9614 20.2755V20.273Z" />
  <path d="M11 42.1543C11.006 44.233 11.9243 46.2251 13.5543 47.6952C15.1843 49.1653 17.3935 49.9939 19.699 50C22.004 49.9939 24.2127 49.1657 25.8426 47.6961C27.4725 46.2265 28.3912 44.2351 28.398 42.1569V30.6938C28.398 30.6938 11 32.4422 11 42.1543ZM19.699 44.2082C19.2484 44.2082 18.808 44.0877 18.4334 43.862C18.0588 43.6364 17.7668 43.3156 17.5944 42.9403C17.422 42.565 17.3769 42.152 17.4648 41.7536C17.5527 41.3552 17.7696 40.9893 18.0882 40.702C18.4068 40.4148 18.8127 40.2192 19.2546 40.1399C19.6965 40.0607 20.1545 40.1014 20.5707 40.2568C20.987 40.4123 21.3427 40.6755 21.593 41.0133C21.8433 41.351 21.9769 41.7481 21.9769 42.1543C21.9781 42.4247 21.92 42.6926 21.806 42.9427C21.692 43.1927 21.5244 43.4201 21.3128 43.6116C21.1011 43.8031 20.8496 43.9551 20.5727 44.0588C20.2958 44.1625 19.9988 44.2159 19.699 44.2159V44.2082Z" />
  <path d="M35.6089 40.515V44.7806H34.73V40.515H35.6089ZM37.3081 42.3373V43.0228H35.3687V42.3373H37.3081ZM37.5132 40.515V41.2035H35.3687V40.515H37.5132ZM41.5269 42.5482V42.7504C41.5269 43.0746 41.4829 43.3656 41.395 43.6234C41.3071 43.8812 41.1831 44.101 41.0229 44.2826C40.8628 44.4623 40.6714 44.6 40.4487 44.6957C40.228 44.7914 39.9829 44.8392 39.7134 44.8392C39.4458 44.8392 39.2007 44.7914 38.978 44.6957C38.7573 44.6 38.5659 44.4623 38.4038 44.2826C38.2417 44.101 38.1157 43.8812 38.0259 43.6234C37.938 43.3656 37.894 43.0746 37.894 42.7504V42.5482C37.894 42.222 37.938 41.931 38.0259 41.6752C38.1138 41.4174 38.2378 41.1976 38.3979 41.016C38.5601 40.8344 38.7515 40.6957 38.9722 40.6C39.1948 40.5043 39.4399 40.4564 39.7075 40.4564C39.9771 40.4564 40.2222 40.5043 40.4429 40.6C40.6655 40.6957 40.8569 40.8344 41.0171 41.016C41.1792 41.1976 41.3042 41.4174 41.3921 41.6752C41.4819 41.931 41.5269 42.222 41.5269 42.5482ZM40.6392 42.7504V42.5424C40.6392 42.3158 40.6187 42.1166 40.5776 41.9447C40.5366 41.7728 40.4761 41.6283 40.396 41.5111C40.3159 41.3939 40.2183 41.306 40.103 41.2474C39.9878 41.1869 39.856 41.1566 39.7075 41.1566C39.5591 41.1566 39.4272 41.1869 39.312 41.2474C39.1987 41.306 39.1021 41.3939 39.022 41.5111C38.9438 41.6283 38.8843 41.7728 38.8433 41.9447C38.8022 42.1166 38.7817 42.3158 38.7817 42.5424V42.7504C38.7817 42.975 38.8022 43.1742 38.8433 43.348C38.8843 43.5199 38.9448 43.6654 39.0249 43.7845C39.105 43.9017 39.2026 43.9906 39.3179 44.0511C39.4331 44.1117 39.5649 44.142 39.7134 44.142C39.8618 44.142 39.9937 44.1117 40.1089 44.0511C40.2241 43.9906 40.3208 43.9017 40.3989 43.7845C40.4771 43.6654 40.5366 43.5199 40.5776 43.348C40.6187 43.1742 40.6392 42.975 40.6392 42.7504ZM44.3804 43.6644C44.3804 43.5883 44.3687 43.5199 44.3452 43.4594C44.3237 43.3969 44.2827 43.3402 44.2222 43.2894C44.1616 43.2367 44.0767 43.1849 43.9673 43.1342C43.8579 43.0834 43.7163 43.0306 43.5425 42.976C43.3491 42.9135 43.1655 42.8431 42.9917 42.765C42.8198 42.6869 42.6675 42.5961 42.5347 42.4926C42.4038 42.3871 42.3003 42.265 42.2241 42.1263C42.1499 41.9877 42.1128 41.8265 42.1128 41.6429C42.1128 41.4652 42.1519 41.3041 42.23 41.1595C42.3081 41.0131 42.4175 40.8881 42.5581 40.7845C42.6987 40.6791 42.8647 40.598 43.0562 40.5414C43.2495 40.4847 43.4614 40.4564 43.6919 40.4564C44.0063 40.4564 44.2808 40.5131 44.5151 40.6263C44.7495 40.7396 44.9312 40.8949 45.0601 41.0922C45.1909 41.2894 45.2563 41.515 45.2563 41.7689H44.3833C44.3833 41.6439 44.3569 41.5345 44.3042 41.4408C44.2534 41.3451 44.1753 41.2699 44.0698 41.2152C43.9663 41.1605 43.8354 41.1332 43.6772 41.1332C43.5249 41.1332 43.3979 41.1566 43.2964 41.2035C43.1948 41.2484 43.1187 41.3099 43.0679 41.3881C43.0171 41.4642 42.9917 41.5502 42.9917 41.6459C42.9917 41.7181 43.0093 41.7836 43.0444 41.8422C43.0815 41.9008 43.1362 41.9554 43.2085 42.0062C43.2808 42.057 43.3696 42.1049 43.4751 42.1498C43.5806 42.1947 43.7026 42.2386 43.8413 42.2816C44.0737 42.3519 44.2778 42.431 44.4536 42.5189C44.6313 42.6068 44.7798 42.7054 44.8989 42.8148C45.0181 42.9242 45.1079 43.0482 45.1685 43.1869C45.229 43.3256 45.2593 43.4828 45.2593 43.6586C45.2593 43.8441 45.2231 44.0101 45.1509 44.1566C45.0786 44.3031 44.9741 44.4271 44.8374 44.5287C44.7007 44.6302 44.5376 44.7074 44.3481 44.7601C44.1587 44.8129 43.9468 44.8392 43.7124 44.8392C43.5015 44.8392 43.2935 44.8119 43.0884 44.7572C42.8833 44.7006 42.6968 44.6156 42.5288 44.5023C42.3628 44.389 42.23 44.2445 42.1304 44.0687C42.0308 43.8929 41.981 43.6849 41.981 43.4447H42.8628C42.8628 43.5775 42.8833 43.6898 42.9243 43.7816C42.9653 43.8734 43.0229 43.9476 43.0972 44.0043C43.1733 44.0609 43.2632 44.1019 43.3667 44.1273C43.4722 44.1527 43.5874 44.1654 43.7124 44.1654C43.8647 44.1654 43.9897 44.1439 44.0874 44.101C44.187 44.058 44.2603 43.9984 44.3071 43.9222C44.356 43.8461 44.3804 43.7601 44.3804 43.6644ZM47.7642 40.515V44.7806H46.8882V40.515H47.7642ZM49.0767 40.515V41.2035H45.5962V40.515H49.0767ZM52.4399 44.0951V44.7806H50.1694V44.0951H52.4399ZM50.4565 40.515V44.7806H49.5776V40.515H50.4565ZM52.144 42.2523V42.9203H50.1694V42.2523H52.144ZM52.437 40.515V41.2035H50.1694V40.515H52.437ZM52.9526 40.515H54.5435C54.8696 40.515 55.1499 40.5638 55.3843 40.6615C55.6206 40.7592 55.8022 40.9037 55.9292 41.0951C56.0562 41.2865 56.1196 41.5219 56.1196 41.8011C56.1196 42.0297 56.0806 42.226 56.0024 42.39C55.9263 42.5521 55.8179 42.6879 55.6772 42.7972C55.5386 42.9047 55.3755 42.9906 55.188 43.0551L54.9097 43.2015H53.5269L53.521 42.516H54.5493C54.7036 42.516 54.8315 42.4886 54.9331 42.434C55.0347 42.3793 55.1108 42.3031 55.1616 42.2054C55.2144 42.1078 55.2407 41.9945 55.2407 41.8656C55.2407 41.7289 55.2153 41.6107 55.1646 41.5111C55.1138 41.4115 55.0366 41.3353 54.9331 41.2826C54.8296 41.2299 54.6997 41.2035 54.5435 41.2035H53.8315V44.7806H52.9526V40.515ZM55.3374 44.7806L54.3647 42.8793L55.2935 42.8734L56.2778 44.7396V44.7806H55.3374ZM59.9517 43.2601H58.8647V42.5746H59.9517C60.1196 42.5746 60.2563 42.5472 60.3618 42.4926C60.4673 42.4359 60.5444 42.3578 60.5933 42.2582C60.6421 42.1586 60.6665 42.0463 60.6665 41.9213C60.6665 41.7943 60.6421 41.6761 60.5933 41.5668C60.5444 41.4574 60.4673 41.3695 60.3618 41.3031C60.2563 41.2367 60.1196 41.2035 59.9517 41.2035H59.1694V44.7806H58.2905V40.515H59.9517C60.2856 40.515 60.5718 40.5756 60.8101 40.6967C61.0503 40.8158 61.2339 40.9808 61.3608 41.1918C61.4878 41.4027 61.5513 41.6439 61.5513 41.9154C61.5513 42.1908 61.4878 42.4291 61.3608 42.6302C61.2339 42.8314 61.0503 42.9867 60.8101 43.0961C60.5718 43.2054 60.2856 43.2601 59.9517 43.2601ZM65.02 44.0951V44.7806H62.7495V44.0951H65.02ZM63.0366 40.515V44.7806H62.1577V40.515H63.0366ZM64.7241 42.2523V42.9203H62.7495V42.2523H64.7241ZM65.0171 40.515V41.2035H62.7495V40.515H65.0171ZM67.4985 40.515V44.7806H66.6226V40.515H67.4985ZM68.811 40.515V41.2035H65.3306V40.515H68.811ZM72.1743 44.0951V44.7806H69.9038V44.0951H72.1743ZM70.1909 40.515V44.7806H69.312V40.515H70.1909ZM71.8784 42.2523V42.9203H69.9038V42.2523H71.8784ZM72.1714 40.515V41.2035H69.9038V40.515H72.1714ZM72.687 40.515H74.2778C74.604 40.515 74.8843 40.5638 75.1187 40.6615C75.355 40.7592 75.5366 40.9037 75.6636 41.0951C75.7905 41.2865 75.854 41.5219 75.854 41.8011C75.854 42.0297 75.8149 42.226 75.7368 42.39C75.6606 42.5521 75.5522 42.6879 75.4116 42.7972C75.2729 42.9047 75.1099 42.9906 74.9224 43.0551L74.644 43.2015H73.2612L73.2554 42.516H74.2837C74.438 42.516 74.5659 42.4886 74.6675 42.434C74.769 42.3793 74.8452 42.3031 74.896 42.2054C74.9487 42.1078 74.9751 41.9945 74.9751 41.8656C74.9751 41.7289 74.9497 41.6107 74.8989 41.5111C74.8481 41.4115 74.771 41.3353 74.6675 41.2826C74.564 41.2299 74.4341 41.2035 74.2778 41.2035H73.5659V44.7806H72.687V40.515ZM75.0718 44.7806L74.0991 42.8793L75.0278 42.8734L76.0122 44.7396V44.7806H75.0718ZM78.7515 43.6644C78.7515 43.5883 78.7397 43.5199 78.7163 43.4594C78.6948 43.3969 78.6538 43.3402 78.5933 43.2894C78.5327 43.2367 78.4478 43.1849 78.3384 43.1342C78.229 43.0834 78.0874 43.0306 77.9136 42.976C77.7202 42.9135 77.5366 42.8431 77.3628 42.765C77.1909 42.6869 77.0386 42.5961 76.9058 42.4926C76.7749 42.3871 76.6714 42.265 76.5952 42.1263C76.521 41.9877 76.4839 41.8265 76.4839 41.6429C76.4839 41.4652 76.5229 41.3041 76.6011 41.1595C76.6792 41.0131 76.7886 40.8881 76.9292 40.7845C77.0698 40.6791 77.2358 40.598 77.4272 40.5414C77.6206 40.4847 77.8325 40.4564 78.063 40.4564C78.3774 40.4564 78.6519 40.5131 78.8862 40.6263C79.1206 40.7396 79.3022 40.8949 79.4312 41.0922C79.562 41.2894 79.6274 41.515 79.6274 41.7689H78.7544C78.7544 41.6439 78.728 41.5345 78.6753 41.4408C78.6245 41.3451 78.5464 41.2699 78.4409 41.2152C78.3374 41.1605 78.2065 41.1332 78.0483 41.1332C77.896 41.1332 77.769 41.1566 77.6675 41.2035C77.5659 41.2484 77.4897 41.3099 77.439 41.3881C77.3882 41.4642 77.3628 41.5502 77.3628 41.6459C77.3628 41.7181 77.3804 41.7836 77.4155 41.8422C77.4526 41.9008 77.5073 41.9554 77.5796 42.0062C77.6519 42.057 77.7407 42.1049 77.8462 42.1498C77.9517 42.1947 78.0737 42.2386 78.2124 42.2816C78.4448 42.3519 78.6489 42.431 78.8247 42.5189C79.0024 42.6068 79.1509 42.7054 79.27 42.8148C79.3892 42.9242 79.479 43.0482 79.5396 43.1869C79.6001 43.3256 79.6304 43.4828 79.6304 43.6586C79.6304 43.8441 79.5942 44.0101 79.522 44.1566C79.4497 44.3031 79.3452 44.4271 79.2085 44.5287C79.0718 44.6302 78.9087 44.7074 78.7192 44.7601C78.5298 44.8129 78.3179 44.8392 78.0835 44.8392C77.8726 44.8392 77.6646 44.8119 77.4595 44.7572C77.2544 44.7006 77.0679 44.6156 76.8999 44.5023C76.7339 44.389 76.6011 44.2445 76.5015 44.0687C76.4019 43.8929 76.3521 43.6849 76.3521 43.4447H77.2339C77.2339 43.5775 77.2544 43.6898 77.2954 43.7816C77.3364 43.8734 77.394 43.9476 77.4683 44.0043C77.5444 44.0609 77.6343 44.1019 77.7378 44.1273C77.8433 44.1527 77.9585 44.1654 78.0835 44.1654C78.2358 44.1654 78.3608 44.1439 78.4585 44.101C78.5581 44.058 78.6313 43.9984 78.6782 43.9222C78.7271 43.8461 78.7515 43.7601 78.7515 43.6644Z" />
</symbol>
<symbol id="icon-customer-5" viewBox="0 0 104 56">
  <g>
    <g id="group">
      <path id="Vector" d="M26.7919 44.373C27.0374 44.6465 27.1681 44.9891 27.1613 45.3407C27.1738 45.57 27.1288 45.7989 27.0298 46.0105C26.9307 46.2221 26.78 46.4109 26.5889 46.563C26.112 46.8872 25.5213 47.0457 24.925 47.0093H22V40.8769H24.8651C25.4307 40.8431 25.9918 40.9871 26.4525 41.2844C26.6375 41.4238 26.784 41.6 26.8805 41.7991C26.9769 41.9982 27.0206 42.2148 27.0082 42.4317C27.025 42.77 26.907 43.1026 26.6754 43.3694C26.4531 43.6131 26.1459 43.782 25.8036 43.8488C26.1916 43.9125 26.5419 44.0983 26.7919 44.373ZM23.361 43.4473H24.5856C24.8639 43.4659 25.1404 43.3935 25.3643 43.2436C25.4562 43.1686 25.5278 43.0755 25.5734 42.9716C25.619 42.8677 25.6374 42.7558 25.6272 42.6445C25.6358 42.5335 25.617 42.4222 25.5722 42.3186C25.5273 42.215 25.4574 42.1217 25.3676 42.0453C25.137 41.8911 24.852 41.8177 24.5657 41.8386H23.361V43.4473ZM25.4841 45.799C25.5824 45.7222 25.6596 45.6261 25.7099 45.518C25.7601 45.4099 25.7819 45.2928 25.7736 45.1759C25.7811 45.0576 25.7583 44.9394 25.7069 44.8303C25.6556 44.7212 25.5771 44.6242 25.4774 44.5468C25.2379 44.3869 24.9432 44.3084 24.6455 44.3251H23.361V46.0117H24.6622C24.955 46.0269 25.2449 45.9519 25.4841 45.799Z" />
      <path id="Vector_2" d="M32.6487 47.0093L31.0547 44.6127H30.4557V47.0093H29.0847V40.8769H31.6803C32.3346 40.8358 32.9814 41.0224 33.4873 41.3982C33.8501 41.731 34.0689 42.1696 34.1043 42.6348C34.1397 43.1001 33.9893 43.5614 33.6803 43.9357C33.36 44.2659 32.9226 44.4861 32.4424 44.5588L34.1395 47.0093H32.6487ZM30.4557 43.7769H31.5772C32.3558 43.7769 32.7452 43.4673 32.7452 42.8482C32.7531 42.7217 32.7318 42.5952 32.6825 42.4766C32.6333 42.358 32.5571 42.2499 32.459 42.1591C32.2129 41.9749 31.896 41.8855 31.5772 41.9105H30.4424L30.4557 43.7769Z" />
      <path id="Vector_3" d="M40.1426 45.7752H37.4106L36.928 47.0094H35.4905L37.9996 40.9459H39.5536L42.0527 47.0094H40.6151L40.1426 45.7752ZM39.7766 44.8465L38.7782 42.2581L37.7799 44.8465H39.7766Z" />
      <path id="Vector_4" d="M49.5234 47.0094H48.1624L45.1109 42.8392V47.0094H43.7532V40.877H45.1109L48.1624 45.0711V40.877H49.5234V47.0094Z" />
      <path id="Vector_5" d="M57.2903 45.5415C57.0089 46.0045 56.5801 46.3811 56.059 46.6229C55.4666 46.8923 54.8091 47.0251 54.1456 47.0094H51.723V40.877H54.1456C54.8079 40.8614 55.4646 40.991 56.059 41.2545C56.58 41.4908 57.0092 41.8637 57.2903 42.324C57.5704 42.8227 57.7164 43.3738 57.7164 43.9327C57.7164 44.4916 57.5704 45.0427 57.2903 45.5415ZM55.7329 45.3947C56.1213 44.9873 56.3349 44.4681 56.3349 43.9312C56.3349 43.3943 56.1213 42.8752 55.7329 42.4678C55.2634 42.0988 54.6511 41.9114 54.0291 41.9465H53.0841V45.9159H54.0291C54.6511 45.951 55.2634 45.7637 55.7329 45.3947Z" />
      <path id="Vector_6" d="M40.9945 6.76672C40.9945 6.76672 58.5614 12.7374 58.1887 21.3773V35.9908C58.1887 35.9908 40.6351 30.0172 41.0012 21.3773L40.9945 6.76672Z" />
      <path id="Vector_7" d="M73.8389 32.5694C77.1565 30.5139 80.9941 29.2408 85 28.8666V24.292C80.3842 25.8935 76.4686 28.7975 73.8389 32.5694Z" />
      <path id="Vector_8" d="M71.8456 33.9478C74.5611 29.0253 79.2686 25.2268 85 23.3336V10.1521C85 10.1521 59.9823 18.6572 60.5114 30.9609V51.7668C60.5114 51.7668 61.6262 51.3863 63.3799 50.6733C63.3799 50.0083 63.3799 49.3372 63.4598 48.6631C63.9776 42.9511 66.9939 37.6581 71.8456 33.9478Z" />
      <path id="Vector_9" d="M69.4663 41.6769C69.5978 40.234 69.891 38.8067 70.3415 37.4169C67.3205 40.6211 65.491 44.5971 65.1104 48.7859C65.0738 49.1814 65.0538 49.5768 65.0438 49.9843C66.4648 49.3701 68.1186 48.6032 69.8557 47.7015C69.4124 45.7197 69.2813 43.6916 69.4663 41.6769Z" />
      <path id="Vector_10" d="M70.4612 41.7519C70.2947 43.5746 70.3988 45.4092 70.7707 47.2072C77.6058 43.5254 85.2861 37.8363 84.99 30.961V30.3618C80.1066 30.8537 75.5377 32.7756 71.9853 35.8321C71.1536 37.7263 70.6399 39.7214 70.4612 41.7519Z" />
    </g>
  </g>
</symbol>

<symbol id="icon-close" viewBox="0 0 8 8">
  <g clip-path="url(#clip0_88_150)">
    <path d="M8 0.805714L7.19429 0L4 3.19429L0.805714 0L0 0.805714L3.19429 4L0 7.19429L0.805714 8L4 4.80571L7.19429 8L8 7.19429L4.80571 4L8 0.805714Z" />
  </g>
</symbol>

<symbol id="send" viewBox="0 0 32 32">
<path d="M32 0l-32 18 10.227 3.787 15.773-14.787-11.997 16.187 0.009 0.003-0.012-0.003v8.813l5.735-6.691 7.267 2.691 4.999-28z"></path>
</symbol>
<symbol id="icon-name" viewBox="0 0 32 32">
<path d="M16 16c2.946 0 5.333-2.388 5.333-5.333s-2.388-5.333-5.333-5.333v0c-2.946 0-5.333 2.388-5.333 5.333s2.388 5.333 5.333 5.333v0zM16 18.667c-3.561 0-10.667 1.787-10.667 5.333v1.333c0 0.732 0.599 1.333 1.333 1.333h18.667c0.732 0 1.333-0.601 1.333-1.333v-1.333c0-3.547-7.108-5.333-10.667-5.333z"></path>
</symbol>
<symbol id="icon-tel" viewBox="0 0 32 32">
<path d="M24.882 19.774l-3.268-0.373c-0.090-0.011-0.194-0.018-0.299-0.018-0.707 0-1.348 0.287-1.811 0.75l-2.368 2.368c-3.669-1.894-6.585-4.81-8.427-8.372l-0.051-0.108 2.382-2.377c0.463-0.463 0.75-1.103 0.75-1.81 0-0.106-0.006-0.21-0.019-0.312l0.001 0.012-0.373-3.243c-0.155-1.287-1.24-2.276-2.557-2.276-0.001 0-0.002 0-0.003 0h-2.226c-1.454 0-2.663 1.209-2.574 2.663 0.683 10.987 9.47 19.76 20.444 20.443 1.452 0.089 2.663-1.12 2.663-2.574v-2.226c0-0.004 0-0.008 0-0.012 0-1.308-0.985-2.386-2.253-2.532l-0.012-0.001z"></path>
</symbol>
<symbol id="icon-email" viewBox="0 0 32 32">
<path d="M26.667 5.333h-21.333c-1.467 0-2.652 1.2-2.652 2.667l-0.014 16c0 1.467 1.2 2.667 2.667 2.667h21.333c1.467 0 2.667-1.2 2.667-2.667v-16c0-1.467-1.2-2.667-2.667-2.667zM26.133 11.001l-9.426 5.892c-0.201 0.126-0.446 0.2-0.708 0.2s-0.506-0.075-0.713-0.204l0.006 0.003-9.426-5.892c-0.336-0.201-0.557-0.562-0.557-0.975 0-0.625 0.507-1.132 1.132-1.132 0.233 0 0.449 0.070 0.629 0.19l-0.004-0.003 8.933 5.586 8.933-5.588c0.176-0.118 0.392-0.188 0.624-0.188 0.625 0 1.132 0.507 1.132 1.132 0 0.413-0.221 0.775-0.552 0.972l-0.005 0.003z"></path>
</symbol>

<symbol id="icon-unchecked" viewBox="0 0 32 32">
<path d="M28.444 4.333v23.333h-24.889v-23.333h24.889zM28.444 1h-24.889c-1.956 0-3.556 1.5-3.556 3.333v23.333c0 1.833 1.6 3.333 3.556 3.333h24.889c1.956 0 3.556-1.5 3.556-3.333v-23.333c0-1.833-1.6-3.333-3.556-3.333z"></path>
</symbol>

<symbol id="icon-checked" viewBox="0 0 32 32">
<path fill="#4d5ae5" style="fill: var(--iris, #4d5ae5)" d="M4 1h24c2.209 0 4 1.791 4 4v22c0 2.209-1.791 4-4 4h-24c-2.209 0-4-1.791-4-4v-22c0-2.209 1.791-4 4-4z"></path>
<path fill="#fff" style="fill: var(--color2, #fff); stroke: var(--color2, #fff)" stroke="#fff" stroke-linejoin="miter" stroke-linecap="butt" stroke-miterlimit="4" stroke-width="0.4" d="M7.914 16.503l-0.138-0.131-2.067 1.958 7.282 6.947 15.298-14.594-2.053-1.959-13.245 12.623-5.077-4.844z"></path>
</symbol>
<symbol id="hamburger-open" viewBox="0 0 32 32">
<path d="M6.4 11.734V9.6h19.2v2.134H6.4zm0 5.332h19.2v-2.133H6.4v2.133zm0 5.334h19.2v-2.134H6.4V22.4z"/>
</symbol>
<symbol id="hamburger-close" viewBox="0 0 32 32">
<path d="M23.734 10.304 22.23 8.8l-5.963 5.962L10.305 8.8l-1.504 1.504 5.962 5.962-5.962 5.963 1.504 1.504 5.962-5.963 5.963 5.963 1.504-1.504-5.963-5.963 5.963-5.962z"/>
</symbol>

</svg>